#!OML:ASF E:/inclinewalkrobotboard/Project1/Captureday1/Session1/subject1.ASF
:FULLY-SPECIFIED
:DEGREES
226
root 0 0 0 17.4185104962539 -4.440439528297375 -1.420172907114552
lowerback 21.459649264129144 -3.2489220930236584 -1.1977196266587185
upperback -0.8142006410097773 -4.810667212440172 3.8367909094905936
thorax -12.712016553860163 -2.1440600437869692 5.227623023918579
lowerneck -9.655295725630628 9.379222535532977 18.6350715732011
upperneck 21.37637822351366 11.002834279456135 -8.308587751300939
head 9.806992585966242 5.953422427031907 -4.616163468308033
rclavicle 6.338277249949523E-16 5.928699159650937E-15
rhumerus 29.64994539025944 15.85404577059791 -71.90935860776283
rradius 100.7844833317419
rwrist -38.57742328671116
rhand -24.443223902281137 -24.62551710082151
rfingers 7.125019999999998
rthumb 2.088520343368982 -55.049077120346446
lclavicle -3.3284826467188044E-15 6.169769476675351E-15
lhumerus 25.86700707283358 -35.21352309548626 73.25867440269595
lradius 141.93480805569615
lwrist 8.767948684405493
lhand -33.35221569623831 8.23441370648128
lfingers 7.12501999999994
lthumb -6.522541147225866 38.69447411143787
rfemur -50.68473947340789 3.668172197151492 28.845278261008026
rtibia 45.601531357680095
rfoot -23.153486132522364 -3.8089339971086567
rtoes -43.06781376820522
lfemur -39.223280376590715 -20.558761757589508 -13.229420257505495
ltibia 17.20906606255847
lfoot -44.48945089281332 5.798533679680348
ltoes -34.707907885616464
227
root 0 0 0 17.446896910950908 -4.401973863565084 -1.42294045269273
lowerback 21.43265954540663 -3.2476746186271823 -1.1756692273114406
upperback -0.8216837411852183 -4.804126301441805 3.857020924288717
thorax -12.707511479876189 -2.1411820030219064 5.236526153523819
lowerneck -9.636946340517548 9.362058740257673 18.627257202605904
upperneck 21.371975933885988 10.980729059151184 -8.311705303568866
head 9.799855154353715 5.942420192074426 -4.6180917514011846
rclavicle 7.403247271280631E-16 5.702529442722621E-15
rhumerus 29.508251917350137 17.08309627141572 -72.57744871702539
rradius 103.31940942061729
rwrist -39.48774514692048
rhand -24.471212604440744 -24.41034594531597
rfingers 7.125019999999996
rthumb 2.0591928035733265 -54.83581202239822
lclavicle -3.5237412296438862E-15 5.920617420687855E-15
lhumerus 25.812310582917448 -35.53971089119105 73.49953745947634
lradius 142.1285166721273
lwrist 8.902739181705961
lhand -33.39644741666265 8.277798553677298
lfingers 7.125019999999939
lthumb -6.566140776270588 38.741391277296316
rfemur -50.47289651964694 3.6687917111896873 29.020583816717053
rtibia 45.55227655767246
rfoot -23.276562974781562 -3.7536874398929587
rtoes -42.980345563393456
lfemur -41.27014265697011 -19.599261571774527 -13.118440928391745
ltibia 19.97839719538024
lfoot -44.12963589175471 5.041406850614897
ltoes -35.10435510192687
228
root 0 0 0 17.465118463722504 -4.363843388301321 -1.4178177950708775
lowerback 21.394128810140167 -3.24580457561137 -1.1614370918770627
upperback -0.8311079387987697 -4.7974339152671845 3.872529480552858
thorax -12.697201106982835 -2.137835646803857 5.2452650494571476
lowerneck -9.635159277556841 9.33658643598299 18.60650493267032
upperneck 21.39885947466768 10.942115121986475 -8.29500931970117
head 9.80233536486894 5.924615652649411 -4.613522853319745
rclavicle 8.325761971346856E-16 5.569477588816332E-15
rhumerus 29.389555859610546 17.907993445140608 -73.01655060852204
rradius 105.01521010206847
rwrist -40.07028115257398
rhand -24.490151424110948 -24.251667440676655
rfingers 7.125019999999995
rthumb 2.0394087579477453 -54.6786673590919
lclavicle -3.608430105752909E-15 5.794216305055864E-15
lhumerus 25.789584781689435 -35.70003785387133 73.6133688578817
lradius 142.2249143559415
lwrist 8.956854709705834
lhand -33.42710102665284 8.2937490696982
lfingers 7.125019999999938
lthumb -6.596114787897433 38.75931700538998
rfemur -50.15033600923707 3.590570241585967 29.16312537510845
rtibia 45.47527647451727
rfoot -23.196472642680252 -3.7273192823546015
rtoes -43.00760408130037
lfemur -42.29319057717202 -19.076305692123302 -13.06261278276562
ltibia 21.39894606093723
lfoot -43.89715985036055 4.676549085899488
ltoes -35.34723305116461
229
root 0 0 0 17.483016929756516 -4.325409684842203 -1.416004779990934
lowerback 21.359888841306827 -3.2438855225713032 -1.147075176213071
upperback -0.8398980346630909 -4.790936009251562 3.8874143327022175
thorax -12.688731592710113 -2.1346300072703617 5.253272999396662
lowerneck -9.629482684275358 9.31536613591884 18.590579284838118
upperneck 21.419901911058165 10.910654405566156 -8.283826670415761
head 9.803686800720959 5.910048718369698 -4.610746212033174
rclavicle 9.583457824981788E-16 5.440223567322615E-15
rhumerus 29.24792625756807 18.788040479093766 -73.51555053781233
rradius 106.60768145535448
rwrist -40.6156018176024
rhand -24.505828019673523 -24.073372629522275
rfingers 7.125019999999993
rthumb 2.022526807813051 -54.501419941418945
lclavicle -3.6706511836049906E-15 5.666176019725695E-15
lhumerus 25.751501091287643 -35.85572495215696 73.73202709846065
lradius 142.30851133459214
lwrist 9.01546839502699
lhand -33.4495192960746 8.313780417271857
lfingers 7.125019999999938
lthumb -6.6181794693662255 38.7809744417338
rfemur -49.82013183998041 3.5254996081428676 29.31640506794659
rtibia 45.38469504111282
rfoot -23.128710378927387 -3.704123823546091
rtoes -43.025884909388495
lfemur -43.235913619491406 -18.63022175697791 -13.005536713563163
ltibia 22.66494716677353
lfoot -43.7166751504939 4.3369499627160275
ltoes -35.55201656878944
230
root 0 0 0 17.500541555691733 -4.285823166072639 -1.4140481528498414
lowerback 21.324526988304832 -3.242004465014311 -1.1331849411357302
upperback -0.8488769076811922 -4.784514979816993 3.902044268244902
thorax -12.679770888348067 -2.1314354552827854 5.261348778482406
lowerneck -9.624423136869344 9.293883288558558 18.573794444247163
upperneck 21.44155546669869 10.878956542391073 -8.272665966376751
head 9.805251201629966 5.8952725131050165 -4.607902561889185
rclavicle 1.092512539146783E-15 5.320987540032224E-15
rhumerus 29.10334577815239 19.654545486016822 -74.02495562164414
rradius 108.04317450807838
rwrist -41.10332174441493
rhand -24.519644708186576 -23.887499457164804
rfingers 7.125019999999991
rthumb 2.0073267732355387 -54.31633548064385
lclavicle -3.7178179215470135E-15 5.551633856188804E-15
lhumerus 25.709708969126304 -35.99905512615251 73.84450232770621
lradius 142.38053477291587
lwrist 9.070292314221978
lhand -33.467465657911575 8.333471975265777
lfingers 7.125019999999937
lthumb -6.635896548051331 38.80199197507643
rfemur -49.45511133679327 3.4583458810510788 29.482082730277742
rtibia 45.27473508350023
rfoot -23.0440654794044 -3.684760608619401
rtoes -43.05814579962288
lfemur -44.008211155254884 -18.280291377270714 -12.951593589974815
ltibia 23.679202476423416
lfoot -43.58642085850859 4.067325546771766
ltoes -35.711991284766384
231
root 0 0 0 17.516942233991916 -4.2453585197564365 -1.412153569327757
lowerback 21.287830350375277 -3.2402987102827128 -1.1202634488267562
upperback -0.8580890140379624 -4.778426753112825 3.916164652610761
thorax -12.670190991631461 -2.128351389319 5.26957069221622
lowerneck -9.620079360209797 9.272485694447221 18.556408566334163
upperneck 21.464970028984716 10.847417269028478 -8.261329937591553
head 9.807465725435254 5.88051907658732 -4.604944784583575
rclavicle 1.2136708306343066E-15 5.209668533883792E-15
rhumerus 28.95727184145341 20.460311508214836 -74.51267150832463
rradius 109.2913284462915
rwrist -41.52301552515894
rhand -24.53125326857839 -23.702883038470173
rfingers 7.12501999999999
rthumb 1.9943384100366082 -54.132302691345096
lclavicle -3.7416882051590704E-15 5.457238127282689E-15
lhumerus 25.66998623531041 -36.11614451954658 73.940155184458
lradius 142.4375036340507
lwrist 9.117876579414038
lhand -33.47981129239844 8.35103775515016
lfingers 7.125019999999937
lthumb -6.6481635114873825 38.82052888288199
rfemur -49.04183186972214 3.3821922461006153 29.657083797154
rtibia 45.140257223820825
rfoot -22.923687882378438 -3.672737168503735
rtoes -43.115731941263746
lfemur -44.53108975387292 -18.066733942208458 -12.898796466421702
ltibia 24.316333323712715
lfoot -43.525309570484424 3.9103646001834464
ltoes -35.82000047350337
232
root 0 0 0 17.54075057640543 -4.1913919542385205 -1.4175638521341987
lowerback 21.244301110161157 -3.2392859610219675 -1.1015676755995054
upperback -0.8697952256221964 -4.772255557087919 3.9352877612759016
thorax -12.660304809831068 -2.1252556867508905 5.280522882310251
lowerneck -9.60385976005382 9.253469931547992 18.544372562318987
upperneck 21.481077678202734 10.821651873134 -8.259910145321683
head 9.806675052082884 5.868082743050779 -4.605488771126771
rclavicle 1.3776316876423523E-15 5.03847996596763E-15
rhumerus 28.703724692028818 21.658669730976268 -75.28875029447698
rradius 110.9039079249918
rwrist -42.07136487932917
rhand -24.53564892840369 -23.412014985389092
rfingers 7.1250199999999895
rthumb 1.9870635547912077 -53.84096984002184
lclavicle -3.760337973507224E-15 5.320368494390577E-15
lhumerus 25.587993360653748 -36.27611048984352 74.08931372101004
lradius 142.50382609485237
lwrist 9.200294558720994
lhand -33.48040623999756 8.384184827578764
lfingers 7.125019999999937
lthumb -6.649371571008565 38.85421176288654
rfemur -48.37080229222143 3.281680263306649 29.944356703505964
rtibia 44.89348445857756
rfoot -22.726803865286133 -3.6652681469917567
rtoes -43.2252470483731
lfemur -44.94258651155772 -18.022458781671627 -12.79428402328988
ltibia 24.613715297486408
lfoot -43.63467785541542 3.8750404687918163
ltoes -35.841208969210356
233
root 0 0 0 17.553423331386224 -4.146470873057586 -1.4143154678788523
lowerback 21.198906968458765 -3.2385696876094157 -1.0924887569740158
upperback -0.8804038363426665 -4.767711599366314 3.9473545184453043
thorax -12.64679752743341 -2.122747432420182 5.289149065065843
lowerneck -9.605717814673575 9.22975546931694 18.521201436363235
upperneck 21.51369108668168 10.78625794665259 -8.243449206764534
head 9.81175826336809 5.8513787532768795 -4.600571897654473
rclavicle 1.4195684685762021E-15 5.018937982113669E-15
rhumerus 28.579578810051355 22.16195272450606 -75.60042006486195
rradius 111.66595596771064
rwrist -42.2951005244426
rhand -24.54352996899113 -23.2647190705754
rfingers 7.125019999999989
rthumb 1.9787817958855491 -53.694138445087916
lclavicle -3.684673988112398E-15 5.360051273166149E-15
lhumerus 25.59644709496113 -36.2795858730011 74.0941308607707
lradius 142.51990902397696
lwrist 9.21299458193225
lhand -33.47970378468479 8.386736932711099
lfingers 7.125019999999937
lthumb -6.648772861429306 38.856928224705385
rfemur -47.7422058916883 3.14531250159477 30.138157464137294
rtibia 44.65848290536206
rfoot -22.4256628847178 -3.686827254018029
rtoes -43.42361279055703
lfemur -44.49620777263929 -18.321436240976656 -12.732364808490647
ltibia 23.7586901339087
lfoot -43.8236562396086 4.181711945515326
ltoes -35.78007377506639
